<mxfile host="Electron" agent="Mozilla/5.0 (Windows NT 10.0; Win64; x64) AppleWebKit/537.36 (KHTML, like Gecko) draw.io/24.7.17 Chrome/128.0.6613.36 Electron/32.0.1 Safari/537.36" version="24.7.17">
  <diagram name="Сторінка-1" id="wCWeLn6fl2u3CtMGEsQt">
    <mxGraphModel dx="751" dy="502" grid="1" gridSize="10" guides="1" tooltips="1" connect="1" arrows="1" fold="1" page="1" pageScale="1" pageWidth="827" pageHeight="1169" math="0" shadow="0">
      <root>
        <mxCell id="0" />
        <mxCell id="1" parent="0" />
        <mxCell id="djAEkdJ0_T0EWEqAejgB-3" style="edgeStyle=orthogonalEdgeStyle;rounded=0;orthogonalLoop=1;jettySize=auto;html=1;exitX=0.5;exitY=1;exitDx=0;exitDy=0;entryX=0.5;entryY=0;entryDx=0;entryDy=0;" parent="1" source="djAEkdJ0_T0EWEqAejgB-1" target="djAEkdJ0_T0EWEqAejgB-2" edge="1">
          <mxGeometry relative="1" as="geometry" />
        </mxCell>
        <mxCell id="djAEkdJ0_T0EWEqAejgB-1" value="&lt;b&gt;Start&lt;/b&gt;" style="ellipse;whiteSpace=wrap;html=1;aspect=fixed;fillColor=#76608a;strokeColor=#432D57;fontColor=#ffffff;" parent="1" vertex="1">
          <mxGeometry x="405" y="120" width="40" height="40" as="geometry" />
        </mxCell>
        <mxCell id="djAEkdJ0_T0EWEqAejgB-5" style="edgeStyle=orthogonalEdgeStyle;rounded=0;orthogonalLoop=1;jettySize=auto;html=1;exitX=0.5;exitY=1;exitDx=0;exitDy=0;entryX=0.5;entryY=0;entryDx=0;entryDy=0;" parent="1" source="djAEkdJ0_T0EWEqAejgB-2" target="djAEkdJ0_T0EWEqAejgB-4" edge="1">
          <mxGeometry relative="1" as="geometry" />
        </mxCell>
        <mxCell id="djAEkdJ0_T0EWEqAejgB-2" value="Input n" style="shape=parallelogram;html=1;strokeWidth=2;perimeter=parallelogramPerimeter;whiteSpace=wrap;rounded=1;arcSize=12;size=0.23;fillColor=#647687;fontColor=#ffffff;strokeColor=#314354;" parent="1" vertex="1">
          <mxGeometry x="385" y="180" width="80" height="40" as="geometry" />
        </mxCell>
        <mxCell id="djAEkdJ0_T0EWEqAejgB-4" value="Init counter" style="rounded=1;whiteSpace=wrap;html=1;absoluteArcSize=1;arcSize=14;strokeWidth=2;fillColor=#6d8764;fontColor=#ffffff;strokeColor=#3A5431;" parent="1" vertex="1">
          <mxGeometry x="390" y="240" width="70" height="50" as="geometry" />
        </mxCell>
        <mxCell id="djAEkdJ0_T0EWEqAejgB-30" style="edgeStyle=orthogonalEdgeStyle;rounded=0;orthogonalLoop=1;jettySize=auto;html=1;exitX=0.5;exitY=1;exitDx=0;exitDy=0;exitPerimeter=0;entryX=0.5;entryY=0;entryDx=0;entryDy=0;" parent="1" source="djAEkdJ0_T0EWEqAejgB-25" target="djAEkdJ0_T0EWEqAejgB-9" edge="1">
          <mxGeometry relative="1" as="geometry" />
        </mxCell>
        <mxCell id="djAEkdJ0_T0EWEqAejgB-46" style="edgeStyle=orthogonalEdgeStyle;rounded=0;orthogonalLoop=1;jettySize=auto;html=1;exitX=1;exitY=0.5;exitDx=0;exitDy=0;exitPerimeter=0;entryX=1;entryY=0.5;entryDx=0;entryDy=0;" parent="1" source="djAEkdJ0_T0EWEqAejgB-6" target="djAEkdJ0_T0EWEqAejgB-13" edge="1">
          <mxGeometry relative="1" as="geometry">
            <Array as="points">
              <mxPoint x="520" y="375" />
              <mxPoint x="520" y="695" />
            </Array>
          </mxGeometry>
        </mxCell>
        <mxCell id="djAEkdJ0_T0EWEqAejgB-6" value="i &amp;lt; n" style="strokeWidth=2;html=1;shape=mxgraph.flowchart.decision;whiteSpace=wrap;fillColor=#f0a30a;fontColor=#000000;strokeColor=#BD7000;" parent="1" vertex="1">
          <mxGeometry x="388.75" y="340" width="72.5" height="70" as="geometry" />
        </mxCell>
        <mxCell id="djAEkdJ0_T0EWEqAejgB-9" value="Input num" style="shape=parallelogram;html=1;strokeWidth=2;perimeter=parallelogramPerimeter;whiteSpace=wrap;rounded=1;arcSize=12;size=0.23;fillColor=#647687;fontColor=#ffffff;strokeColor=#314354;" parent="1" vertex="1">
          <mxGeometry x="385" y="450" width="80" height="40" as="geometry" />
        </mxCell>
        <mxCell id="djAEkdJ0_T0EWEqAejgB-12" style="edgeStyle=orthogonalEdgeStyle;rounded=0;orthogonalLoop=1;jettySize=auto;html=1;exitX=0.5;exitY=1;exitDx=0;exitDy=0;entryX=0.5;entryY=0;entryDx=0;entryDy=0;entryPerimeter=0;" parent="1" source="djAEkdJ0_T0EWEqAejgB-4" target="djAEkdJ0_T0EWEqAejgB-6" edge="1">
          <mxGeometry relative="1" as="geometry" />
        </mxCell>
        <mxCell id="djAEkdJ0_T0EWEqAejgB-13" value="Output Counter" style="shape=parallelogram;html=1;strokeWidth=2;perimeter=parallelogramPerimeter;whiteSpace=wrap;rounded=1;arcSize=12;size=0.23;fillColor=#647687;fontColor=#ffffff;strokeColor=#314354;" parent="1" vertex="1">
          <mxGeometry x="365" y="680" width="120" height="30" as="geometry" />
        </mxCell>
        <mxCell id="djAEkdJ0_T0EWEqAejgB-17" value="False" style="text;html=1;align=center;verticalAlign=middle;whiteSpace=wrap;rounded=0;fillColor=#f5f5f5;fontColor=#333333;strokeColor=#666666;" parent="1" vertex="1">
          <mxGeometry x="468.75" y="365" width="40" height="15" as="geometry" />
        </mxCell>
        <mxCell id="djAEkdJ0_T0EWEqAejgB-31" value="" style="edgeStyle=orthogonalEdgeStyle;rounded=0;orthogonalLoop=1;jettySize=auto;html=1;exitX=0.5;exitY=1;exitDx=0;exitDy=0;exitPerimeter=0;entryX=0.5;entryY=0;entryDx=0;entryDy=0;" parent="1" source="djAEkdJ0_T0EWEqAejgB-6" target="djAEkdJ0_T0EWEqAejgB-25" edge="1">
          <mxGeometry relative="1" as="geometry">
            <mxPoint x="425" y="410" as="sourcePoint" />
            <mxPoint x="425" y="460" as="targetPoint" />
          </mxGeometry>
        </mxCell>
        <mxCell id="djAEkdJ0_T0EWEqAejgB-25" value="True" style="text;html=1;align=center;verticalAlign=middle;whiteSpace=wrap;rounded=0;fillColor=#f5f5f5;fontColor=#333333;strokeColor=#666666;" parent="1" vertex="1">
          <mxGeometry x="405" y="410" width="40" height="15" as="geometry" />
        </mxCell>
        <mxCell id="djAEkdJ0_T0EWEqAejgB-48" value="" style="edgeStyle=orthogonalEdgeStyle;rounded=0;orthogonalLoop=1;jettySize=auto;html=1;" parent="1" source="djAEkdJ0_T0EWEqAejgB-44" target="djAEkdJ0_T0EWEqAejgB-45" edge="1">
          <mxGeometry relative="1" as="geometry" />
        </mxCell>
        <mxCell id="djAEkdJ0_T0EWEqAejgB-44" value="num &amp;gt;= 2" style="strokeWidth=2;html=1;shape=mxgraph.flowchart.decision;whiteSpace=wrap;fillColor=#f0a30a;fontColor=#000000;strokeColor=#BD7000;" parent="1" vertex="1">
          <mxGeometry x="395" y="510" width="60" height="60" as="geometry" />
        </mxCell>
        <mxCell id="djAEkdJ0_T0EWEqAejgB-53" style="edgeStyle=orthogonalEdgeStyle;rounded=0;orthogonalLoop=1;jettySize=auto;html=1;exitX=0;exitY=0.5;exitDx=0;exitDy=0;" parent="1" source="djAEkdJ0_T0EWEqAejgB-45" edge="1">
          <mxGeometry relative="1" as="geometry">
            <mxPoint x="420" y="310" as="targetPoint" />
            <Array as="points">
              <mxPoint x="330" y="630" />
              <mxPoint x="330" y="310" />
            </Array>
          </mxGeometry>
        </mxCell>
        <mxCell id="djAEkdJ0_T0EWEqAejgB-54" style="edgeStyle=orthogonalEdgeStyle;rounded=0;orthogonalLoop=1;jettySize=auto;html=1;exitX=0.5;exitY=1;exitDx=0;exitDy=0;entryX=0.5;entryY=0;entryDx=0;entryDy=0;" parent="1" source="djAEkdJ0_T0EWEqAejgB-45" target="djAEkdJ0_T0EWEqAejgB-13" edge="1">
          <mxGeometry relative="1" as="geometry" />
        </mxCell>
        <mxCell id="djAEkdJ0_T0EWEqAejgB-45" value="counter ++" style="rounded=1;whiteSpace=wrap;html=1;absoluteArcSize=1;arcSize=14;strokeWidth=2;fillColor=#6d8764;fontColor=#ffffff;strokeColor=#3A5431;" parent="1" vertex="1">
          <mxGeometry x="390" y="600" width="70" height="60" as="geometry" />
        </mxCell>
        <mxCell id="djAEkdJ0_T0EWEqAejgB-47" style="edgeStyle=orthogonalEdgeStyle;rounded=0;orthogonalLoop=1;jettySize=auto;html=1;exitX=0.5;exitY=1;exitDx=0;exitDy=0;entryX=0.5;entryY=0;entryDx=0;entryDy=0;entryPerimeter=0;" parent="1" source="djAEkdJ0_T0EWEqAejgB-9" target="djAEkdJ0_T0EWEqAejgB-44" edge="1">
          <mxGeometry relative="1" as="geometry" />
        </mxCell>
        <mxCell id="djAEkdJ0_T0EWEqAejgB-38" value="True" style="text;html=1;align=center;verticalAlign=middle;whiteSpace=wrap;rounded=0;fillColor=#f5f5f5;fontColor=#333333;strokeColor=#666666;" parent="1" vertex="1">
          <mxGeometry x="405" y="570" width="40" height="15" as="geometry" />
        </mxCell>
        <mxCell id="djAEkdJ0_T0EWEqAejgB-52" style="edgeStyle=orthogonalEdgeStyle;rounded=0;orthogonalLoop=1;jettySize=auto;html=1;exitX=0;exitY=0.5;exitDx=0;exitDy=0;exitPerimeter=0;" parent="1" source="djAEkdJ0_T0EWEqAejgB-44" edge="1">
          <mxGeometry relative="1" as="geometry">
            <mxPoint x="425" y="310" as="targetPoint" />
            <Array as="points">
              <mxPoint x="340" y="540" />
              <mxPoint x="340" y="310" />
            </Array>
          </mxGeometry>
        </mxCell>
        <mxCell id="djAEkdJ0_T0EWEqAejgB-41" value="False" style="text;html=1;align=center;verticalAlign=middle;whiteSpace=wrap;rounded=0;fillColor=#f5f5f5;fontColor=#333333;strokeColor=#666666;" parent="1" vertex="1">
          <mxGeometry x="350" y="532.5" width="40" height="15" as="geometry" />
        </mxCell>
        <mxCell id="djAEkdJ0_T0EWEqAejgB-55" value="End" style="strokeWidth=2;html=1;shape=mxgraph.flowchart.start_2;whiteSpace=wrap;fillColor=#76608a;fontColor=#ffffff;strokeColor=#432D57;" parent="1" vertex="1">
          <mxGeometry x="402.5" y="740" width="45" height="40" as="geometry" />
        </mxCell>
        <mxCell id="djAEkdJ0_T0EWEqAejgB-56" style="edgeStyle=orthogonalEdgeStyle;rounded=0;orthogonalLoop=1;jettySize=auto;html=1;exitX=0.5;exitY=1;exitDx=0;exitDy=0;entryX=0.5;entryY=0;entryDx=0;entryDy=0;entryPerimeter=0;" parent="1" source="djAEkdJ0_T0EWEqAejgB-13" target="djAEkdJ0_T0EWEqAejgB-55" edge="1">
          <mxGeometry relative="1" as="geometry" />
        </mxCell>
      </root>
    </mxGraphModel>
  </diagram>
</mxfile>
